<svg width="48" height="48" viewBox="0 0 48 48" fill="none" xmlns="http://www.w3.org/2000/svg">
<path d="M23.6902 43.141L24 45L24.3098 43.141C25.9191 33.4853 33.4855 25.919 43.1412 24.3098L45 24L43.1407 23.6901C33.4853 22.0808 25.9191 14.5145 24.3099 4.85908L24 3L23.6902 4.85907C22.0809 14.5145 14.5147 22.0808 4.85928 23.6901L3 24L4.85883 24.3098C14.5145 25.919 22.0809 33.4853 23.6902 43.141Z" fill="#00F0A0" stroke="black" stroke-width="3.2" stroke-linecap="round" stroke-linejoin="round"/>
<path d="M8.44863 13.346L8.99995 15L9.55133 13.3459C10.1485 11.5544 11.5543 10.1485 13.3459 9.55128L15 8.99986L13.3461 8.44861C11.5544 7.85145 10.1485 6.44558 9.55125 4.65395L8.99989 3L8.44868 4.65375C7.85148 6.44549 6.44549 7.85147 4.65374 8.44866L3 8.99986L4.65404 9.55126C6.44562 10.1485 7.85145 11.5544 8.44863 13.346Z" fill="#00F0A0" stroke="black" stroke-width="2.2" stroke-linecap="round" stroke-linejoin="round"/>
</svg>
