<svg width="48" height="48" viewBox="0 0 48 48" fill="none" xmlns="http://www.w3.org/2000/svg">
<path d="M10.5 40.4C9.61634 40.4 8.9 41.1163 8.9 42C8.9 42.8837 9.61634 43.6 10.5 43.6V40.4ZM43.5 43.6C44.3837 43.6 45.1 42.8837 45.1 42C45.1 41.1163 44.3837 40.4 43.5 40.4V43.6ZM10.5 43.6H43.5V40.4H10.5V43.6Z" fill="black"/>
<path d="M17.636 39.3645L38.2505 18.75C41.15 15.8505 41.15 11.1495 38.2505 8.25C35.3511 5.35051 30.65 5.3505 27.7506 8.24999L7.13604 28.8645C5.44821 30.5523 4.5 32.8415 4.5 35.2285V40.8005C4.5 41.4633 5.03726 42.0005 5.7 42.0005H11.2721C13.659 42.0005 15.9482 41.0523 17.636 39.3645Z" fill="#00F0A0" stroke="black" stroke-width="3.2" stroke-linejoin="round"/>
<path d="M32.9999 13.4984L25.4985 20.9998" stroke="black" stroke-width="3.2" stroke-linecap="round"/>
</svg>
