<svg width="48" height="48" viewBox="0 0 48 48" fill="none" xmlns="http://www.w3.org/2000/svg">
<path fill-rule="evenodd" clip-rule="evenodd" d="M25.2522 11.6727C21.6343 8.62813 13.2722 3.13236 8.76662 5.50598C3.13463 8.47301 5.02498 17.2426 11.4938 25.4312C16.6688 31.9821 22.8223 18.9884 25.2522 11.6727ZM37.1817 22.8112C40.1515 26.3818 45.4515 34.6857 42.8933 39.3368C39.6955 45.1507 30.8586 43.5231 22.7631 37.2299C16.2867 32.1954 29.677 25.5197 37.1817 22.8112Z" fill="#00F0A0"/>
<path d="M30.7872 30.7878C40.1598 21.4152 45.4685 11.5279 40.9696 7.02905C36.4708 2.53021 26.5834 7.83879 17.2108 17.2113C7.83819 26.5839 2.52957 36.4712 7.02841 40.9701C11.5273 45.4689 21.4146 40.1604 30.7872 30.7878Z" fill="#00F0A0" stroke="black" stroke-width="3.2" stroke-linejoin="round"/>
<path d="M30.7876 17.211C21.415 7.83844 11.5276 2.52982 7.02881 7.02866C2.52997 11.5275 7.83854 21.4149 17.2111 30.7875C26.5837 40.1601 36.471 45.4687 40.9698 40.9699C45.4687 36.471 40.1601 26.5837 30.7876 17.211Z" stroke="black" stroke-width="3.2" stroke-linejoin="round"/>
<path d="M25.7988 17.6995C25.7988 15.2142 27.8135 13.1995 30.2988 13.1995C32.7841 13.1995 34.7988 15.2142 34.7988 17.6995C34.7988 20.1847 32.7841 22.1995 30.2988 22.1995C27.8135 22.1995 25.7988 20.1847 25.7988 17.6995Z" fill="#00F0A0" stroke="black" stroke-width="3.2" stroke-linejoin="round"/>
</svg>
