<svg width="48" height="48" viewBox="0 0 48 48" fill="none" xmlns="http://www.w3.org/2000/svg">
<path fill-rule="evenodd" clip-rule="evenodd" d="M23.9987 3.33325C12.5848 3.33325 3.33203 12.586 3.33203 23.9999C3.33203 35.4138 12.5848 44.6666 23.9987 44.6666C25.6477 44.6666 27.2515 44.4735 28.7889 44.1086C32.3019 43.4147 35.9189 43.4218 39.4317 44.1313L40.5505 44.3573C41.2589 44.5003 41.873 43.8533 41.6931 43.1534L40.1004 36.9567C42.956 33.4124 44.6654 28.9058 44.6654 23.9999C44.6654 12.586 35.4126 3.33325 23.9987 3.33325Z" fill="#00F0A0"/>
<path d="M28.7889 44.1086L28.4788 42.5389L28.449 42.5448L28.4194 42.5518L28.7889 44.1086ZM39.4317 44.1313L39.115 45.6996H39.115L39.4317 44.1313ZM40.5505 44.3573L40.8673 42.7889L40.5505 44.3573ZM41.6931 43.1534L40.1435 43.5516V43.5517L41.6931 43.1534ZM40.1004 36.9567L38.8545 35.9528L38.351 36.5777L38.5507 37.355L40.1004 36.9567ZM4.93203 23.9999C4.93203 13.4697 13.4685 4.93325 23.9987 4.93325V1.73325C11.7012 1.73325 1.73203 11.7024 1.73203 23.9999H4.93203ZM23.9987 43.0666C13.4685 43.0666 4.93203 34.5301 4.93203 23.9999H1.73203C1.73203 36.2975 11.7012 46.2666 23.9987 46.2666V43.0666ZM28.4194 42.5518C27.0022 42.8882 25.5223 43.0666 23.9987 43.0666V46.2666C25.773 46.2666 27.5008 46.0587 29.1584 45.6654L28.4194 42.5518ZM39.7485 42.563C36.0288 41.8117 32.1987 41.8041 28.4788 42.5389L29.099 45.6783C32.405 45.0252 35.809 45.0319 39.115 45.6996L39.7485 42.563ZM40.8673 42.7889L39.7485 42.563L39.115 45.6996L40.2338 45.9256L40.8673 42.7889ZM40.1435 43.5517C40.0295 43.1082 40.4185 42.6983 40.8673 42.7889L40.2338 45.9256C42.0993 46.3024 43.7165 44.5983 43.2427 42.7551L40.1435 43.5517ZM38.5507 37.355L40.1435 43.5516L43.2427 42.7551L41.65 36.5584L38.5507 37.355ZM43.0654 23.9999C43.0654 28.5275 41.4893 32.6826 38.8545 35.9528L41.3463 37.9605C44.4227 34.1422 46.2654 29.2841 46.2654 23.9999H43.0654ZM23.9987 4.93325C34.5289 4.93325 43.0654 13.4697 43.0654 23.9999H46.2654C46.2654 11.7024 36.2962 1.73325 23.9987 1.73325V4.93325Z" fill="black"/>
<path d="M16.5 18V24" stroke="black" stroke-width="3.2" stroke-linecap="round" stroke-linejoin="round"/>
<path d="M28.5 18V24" stroke="black" stroke-width="3.2" stroke-linecap="round" stroke-linejoin="round"/>
</svg>
